<svg width="26" height="24" viewBox="0 0 26 24" fill="none" xmlns="http://www.w3.org/2000/svg">
<path d="M13.686 23C13.4651 22.9999 13.2513 22.9238 13.0819 22.7851C10.6401 20.747 8.37992 18.5093 6.32581 16.0962C4.35525 13.7801 3.47034 10.9273 3.8963 8.27C4.26667 5.96227 5.60864 3.98566 7.67439 2.70451C9.46717 1.59031 11.5472 0.99906 13.6709 1H13.7029C15.8299 1 17.9032 1.58939 19.6994 2.70451C21.7661 3.98658 23.1081 5.96319 23.4784 8.27C23.9044 10.9273 23.0185 13.7792 21.0489 16.0962C18.996 18.5086 16.7368 20.7454 14.2957 22.7823C14.1246 22.9223 13.9089 22.9993 13.686 23ZM13.6709 1.92236C11.7229 1.92236 9.824 2.46193 8.17951 3.48298C6.3456 4.62116 5.15441 6.37179 4.82739 8.41204C4.44289 10.8065 5.25336 13.3918 7.04957 15.5049C9.06843 17.8768 11.2898 20.0763 13.6897 22.0795C16.0859 20.0748 18.305 17.8758 20.3233 15.5059C22.1204 13.3928 22.9309 10.8074 22.5464 8.41296C22.2194 6.37179 21.0282 4.62116 19.1943 3.48298C17.5521 2.46285 15.647 1.92154 13.702 1.92236H13.6709Z" fill="#5B5C60"/>
<path d="M14.225 15.7568C14.0228 15.7568 13.8259 15.693 13.6636 15.5749C13.5013 15.4567 13.3822 15.2905 13.3241 15.101L12.3657 11.9751L9.1728 11.038C9.03856 10.9986 8.91506 10.9302 8.81134 10.8379C8.70763 10.7457 8.62633 10.6319 8.57343 10.5049C8.52591 10.393 8.5016 10.273 8.50192 10.1519C8.50225 10.0307 8.5272 9.91087 8.57532 9.79926C8.62277 9.68728 8.69243 9.5856 8.78026 9.50011C8.86809 9.41463 8.97236 9.34702 9.08704 9.30119L17.1804 6.06004C17.4105 5.96711 17.6688 5.96726 17.8988 6.06045C18.1288 6.15364 18.3117 6.33227 18.4074 6.55719C18.4555 6.66895 18.4805 6.78897 18.4808 6.91026C18.4811 7.03156 18.4568 7.1517 18.4093 7.26371L15.0986 15.1849C15.0275 15.3543 14.9064 15.4992 14.7508 15.6011C14.5952 15.7029 14.4122 15.7571 14.225 15.7568ZM9.44421 10.1553L12.8793 11.1634C12.9539 11.1854 13.0218 11.2251 13.0769 11.279C13.132 11.3329 13.1725 11.3994 13.195 11.4724L14.2259 14.8353L17.5366 6.91414L9.44421 10.1553Z" fill="#5B5C60"/>
</svg>
