<svg width="26" height="24" viewBox="0 0 26 24" fill="none" xmlns="http://www.w3.org/2000/svg">
<g clip-path="url(#clip0_1_28872)">
<path d="M18.5145 23.8682C16.0937 23.8682 16.0062 21.7942 15.8749 18.6552C15.8197 17.3502 15.753 15.7632 15.5301 13.9402L10.1812 19.0752V21.3682C10.1812 22.7462 9.01344 23.8682 7.57699 23.8682C5.6249 23.8682 5.21553 22.4732 4.78115 20.9972C4.71032 20.7582 4.63949 20.5142 4.55824 20.2652C4.27594 20.1802 3.99886 20.1052 3.75094 20.0372C2.23636 19.6252 0.806152 19.2372 0.806152 17.3682C0.806152 15.9902 1.97386 14.8682 3.41032 14.8682H5.79886L11.1478 9.73322C9.24886 9.51922 7.59678 9.45622 6.24678 9.40422C2.97074 9.27822 0.806152 9.19522 0.806152 6.86822C0.806152 6.08322 1.03324 5.48622 1.4999 5.04022C2.58636 4.00422 4.79574 3.83722 9.66344 3.83722C10.6124 3.83722 11.6593 3.84322 12.8114 3.85022H12.8457C14.1739 3.85822 15.6395 3.86722 17.2562 3.86822L20.2572 0.987216C20.8324 0.440883 21.6095 0.135297 22.4187 0.137216C23.2509 0.137216 24.0301 0.449216 24.6124 1.01722L24.6239 1.02822C24.911 1.3042 25.1384 1.63195 25.2931 1.99263C25.4478 2.3533 25.5267 2.73978 25.5253 3.12984C25.5238 3.51989 25.4421 3.90582 25.2847 4.26542C25.1273 4.62503 24.8974 4.95121 24.6082 5.22522L21.6384 8.07622C21.6405 10.4152 21.6728 12.3702 21.702 14.0982C21.7916 19.5362 21.8322 22.0182 20.6551 23.1662C20.1645 23.6452 19.4843 23.8682 18.5145 23.8682ZM15.9103 12.3682C16.0357 12.3682 16.1568 12.4116 16.2515 12.4904C16.3462 12.5692 16.4081 12.6781 16.4259 12.7972C16.7687 15.1022 16.8499 17.0492 16.9155 18.6142C17.0603 22.0622 17.2249 22.8682 18.5145 22.8682C19.1957 22.8682 19.627 22.7432 19.9134 22.4632C20.7843 21.6142 20.7405 18.9502 20.6614 14.1132C20.6219 12.0314 20.6007 9.94935 20.5978 7.86722C20.5977 7.80151 20.6111 7.73643 20.6372 7.67569C20.6633 7.61494 20.7016 7.55974 20.7499 7.51322L23.8749 4.51322C24.0668 4.33268 24.2194 4.11739 24.324 3.87982C24.4286 3.64226 24.4831 3.38713 24.4843 3.12922C24.4865 2.86701 24.4337 2.60706 24.3288 2.36495C24.2239 2.12283 24.0691 1.90354 23.8739 1.72022C23.6844 1.53484 23.4583 1.38775 23.2087 1.28762C22.9592 1.18749 22.6912 1.13635 22.4207 1.13722C21.8812 1.13722 21.3728 1.33722 20.9905 1.69922L17.8416 4.72222C17.7932 4.76871 17.7357 4.80554 17.6724 4.8306C17.6091 4.85566 17.5413 4.86844 17.4728 4.86822C15.7541 4.86822 14.203 4.85922 12.8051 4.85022C11.7614 4.84278 10.7176 4.83845 9.67386 4.83722C5.37386 4.83722 3.04261 4.97822 2.23428 5.75022C1.97074 6.00122 1.84782 6.35722 1.84782 6.86822C1.84782 8.10822 2.68949 8.26622 6.28844 8.40422C7.91865 8.46722 9.94574 8.54522 12.3374 8.87322C12.4002 8.81402 12.4777 8.77114 12.5625 8.74862C12.6473 8.72609 12.7368 8.72465 12.8223 8.74445C12.9079 8.76424 12.9868 8.80461 13.0516 8.86176C13.1165 8.9189 13.1651 8.99095 13.1929 9.07111C13.2208 9.15127 13.2269 9.23692 13.2108 9.31998C13.1946 9.40304 13.1567 9.48079 13.1006 9.54592C13.0445 9.61104 12.9721 9.66139 12.8902 9.69223C12.8082 9.72307 12.7194 9.73339 12.6322 9.72222L6.38219 15.7222C6.33381 15.7687 6.27631 15.8055 6.21302 15.8306C6.14973 15.8557 6.0819 15.8684 6.01344 15.8682H3.40928C2.54782 15.8682 1.84678 16.5412 1.84678 17.3682C1.84678 18.3952 2.38115 18.6262 4.03428 19.0752C4.38636 19.1712 4.7499 19.2702 5.1374 19.3942C5.29157 19.4442 5.41449 19.5612 5.46657 19.7102C5.58844 20.0622 5.6874 20.3992 5.78324 20.7262C6.2499 22.3132 6.50824 22.8692 7.57594 22.8692C8.4374 22.8692 9.13844 22.1962 9.13844 21.3692V18.8692C9.13832 18.8035 9.15169 18.7384 9.17779 18.6777C9.20388 18.6169 9.24219 18.5617 9.29053 18.5152L15.5405 12.5152C15.6392 12.422 15.7719 12.3693 15.9103 12.3682Z" fill="#5B5C60"/>
</g>
<defs>
<clipPath id="clip0_1_28872">
<rect width="25" height="24" fill="white" transform="translate(0.666504)"/>
</clipPath>
</defs>
</svg>
