<svg width="24" height="24" viewBox="0 0 24 24" fill="none" xmlns="http://www.w3.org/2000/svg">
<path d="M1 20C0.449 20 0 19.552 0 19V14C0 13.448 0.449 13 1 13H3C3.551 13 4 13.448 4 14V19C4 19.552 3.551 20 3 20H1ZM1 19H3V14H1V19Z" fill="#5B5C60"/>
<path d="M6 20C5.449 20 5 19.552 5 19V11C5 10.449 5.449 10 6 10H8C8.551 10 9 10.449 9 11V19C9 19.552 8.551 20 8 20H6ZM6 19H8V11H6V19Z" fill="#5B5C60"/>
<path d="M11 20C10.449 20 10 19.552 10 19V8C10 7.449 10.449 7 11 7H13C13.552 7 14 7.449 14 8V19C14 19.2652 13.8946 19.5196 13.7071 19.7071C13.5196 19.8946 13.2652 20 13 20H11ZM11 19H13V8H11V19Z" fill="#5B5C60"/>
<path d="M16 20C15.7348 20 15.4804 19.8946 15.2929 19.7071C15.1054 19.5196 15 19.2652 15 19V5C15 4.449 15.448 4 16 4H18C18.552 4 19 4.449 19 5V19C19 19.2652 18.8946 19.5196 18.7071 19.7071C18.5196 19.8946 18.2652 20 18 20H16ZM16 19H18V5H16V19Z" fill="#5B5C60"/>
<path d="M20.5 20C20.3674 20 20.2402 19.9473 20.1464 19.8536C20.0527 19.7598 20 19.6326 20 19.5C20 19.3674 20.0527 19.2402 20.1464 19.1464C20.2402 19.0527 20.3674 19 20.5 19H23.5C23.6326 19 23.7598 19.0527 23.8536 19.1464C23.9473 19.2402 24 19.3674 24 19.5C24 19.6326 23.9473 19.7598 23.8536 19.8536C23.7598 19.9473 23.6326 20 23.5 20H20.5Z" fill="#5B5C60"/>
</svg>
